<svg width="48" height="48" viewBox="0 0 48 48" fill="none" xmlns="http://www.w3.org/2000/svg">
<rect width="48" height="48" rx="6" fill="#F08D34"/>
<path fill-rule="evenodd" clip-rule="evenodd" d="M27 13.4375C27.5695 13.4375 28.0312 13.8992 28.0312 14.4688C28.0312 15.0383 27.5695 15.5 27 15.5H21.0625C20.493 15.5 20.0312 15.0383 20.0312 14.4688C20.0312 13.8992 20.493 13.4375 21.0625 13.4375H27Z" fill="white"/>
<path d="M22.2663 23V23.8125C22.2663 24.1916 22.5 24.5 22.8736 24.4954L25.0642 24.5C25.4168 24.5 25.7471 24.1961 25.7471 23.8125L25.7517 23L35 23.0046V32.6296C35 33.0093 34.6922 33.3171 34.3125 33.3171H13.6875C13.3078 33.3171 13 33.0093 13 32.6296V23.0046L22.2663 23Z" fill="white"/>
<path d="M34.3125 16.9375C34.6922 16.9375 35 17.2453 35 17.625V21.0625L25.7517 21.0579L25.7471 20.1034C25.7471 19.7508 25.5 19.4961 25.1398 19.5007L22.9492 19.4961C22.5966 19.4961 22.2617 19.7451 22.2663 20.1034V21.0579L13 21.0625V17.625C13 17.2453 13.3078 16.9375 13.6875 16.9375H34.3125Z" fill="white"/>
</svg>
